<svg id="Layer_1" data-name="Layer 1" xmlns="http://www.w3.org/2000/svg" xmlns:xlink="http://www.w3.org/1999/xlink" viewBox="0 0 400 300"><defs><linearGradient id="linear-gradient" x1="188.26" y1="207.43" x2="229.35" y2="180.75" gradientUnits="userSpaceOnUse"><stop offset="0" stop-color="#ffd555" stop-opacity="0.03"/><stop offset="1" stop-color="#942500"/></linearGradient><linearGradient id="linear-gradient-2" x1="266.1" y1="220.3" x2="290.53" y2="194.72" xlink:href="#linear-gradient"/><linearGradient id="linear-gradient-3" x1="147.05" y1="251.26" x2="164.09" y2="200.16" xlink:href="#linear-gradient"/></defs><title>81-90</title><polygon points="54.48 208.6 188.57 285.4 341.64 196.32 208.08 119.21 54.48 208.6" fill="#e0b190"/><path d="M202.24,220.28q6.63-4.07,13.16-8.3c7.43-4.83,15.7-9.42,22.61-15.19l-36.79-20.16-35,29.7c7.2,3.77,17,9,31.21,16.79C199,222.17,200.65,221.26,202.24,220.28Z" opacity="0.32" fill="url(#linear-gradient)"/><path d="M279.46,225.18q6.63-4.07,13.16-8.3c7.43-4.83,15.7-9.42,22.61-15.19l-34.76-9.37-37,18.91c7.2,3.77,17,9,31.21,16.79C276.24,227.07,277.87,226.16,279.46,225.18Z" opacity="0.32" fill="url(#linear-gradient-2)"/><path d="M163.2,267.85c15-8.07,50.42-25.89,65.28-34.15l-104.94-37L81.21,222.09C96.87,230.29,141.52,254.44,163.2,267.85Z" opacity="0.32" fill="url(#linear-gradient-3)"/><polygon points="187.31 104.75 187.31 20.67 53.75 97.87 53.75 181.95 187.31 104.75" fill="#173743"/><polyline points="189.15 173.64 211.82 185.57 212.5 191.17 188.5 177.63" fill="#e27623"/><path d="M188.22,164.49l-9.34,33.68,1.71,1a10.65,10.65,0,0,0,1.28-.79C182.38,198,194,163,194,163" fill="#e27623"/><polyline points="209.77 157.92 216.14 177.81 215.6 217.6 214.17 218.54 212.2 217.31 210.72 177.79 204.97 157.92" fill="#e27623"/><path d="M184.74,155.54s-.71,4.41.81,6.86,5.54-3.65,5.54-3.65" fill="#ffb469"/><polyline points="205.87 131.49 204.97 147.61 209.19 149.79 209.98 132.53" fill="#ca6b00"/><polyline points="232.4 143.36 235.23 165.14 238.1 197.17 236.25 198.26 234.43 197.12 230.34 165.64 227.59 143.36" fill="#e27623"/><path d="M229.53,146.07c1.19.36,3.74-1.51,4.51-2.72,4.19-6.58,3-15.52-4.56-19.69-3.34-1.85-6.78-3.68-10.1-5.58-2.95-1.69-6.08-3.12-8.93-5a6.55,6.55,0,0,0-1.19-.65,4.06,4.06,0,0,0-4.29,1.46" fill="#ffb469"/><path d="M229.84,145.79c2-.07,3.17-2.74,3.77-4.31,1.64-4.32,2-12.54-3-15a.59.59,0,0,1-.35-.47l-9.45-5.46-7.31-4.22c-1.28-.74-2.49-1.58-3.77-2.32s-2.54-1.6-3.94-.76-1.76,2.68-2,4.31a26.11,26.11,0,0,0,.58,11.3,9.91,9.91,0,0,0,4.86,5.37l6.79,3.93,12.59,7.26a2.68,2.68,0,0,0,.65.3A1.88,1.88,0,0,0,229.84,145.79Z" fill="#fcbd4c"/><path d="M231.21,163.23l.38.22a9.45,9.45,0,0,1,2.82,2.13c1.91,2.39.06,5.13-1.83,6.81-5.12,4.55-12.88,8.27-19.82,6.59a61.52,61.52,0,0,1-17-7.48c-4.34-2.61-9.77-5.76-10.91-11.15a7.79,7.79,0,0,1,2.06-6.71c10.9-12.63,26.23-.77,37,5.41Z" fill="#ffb469"/><path d="M235,163.73a14.46,14.46,0,0,1,.22,4.62,13,13,0,0,1-3.12,4.47c-1.27,1-.51-6.1-.51-6.1" fill="#ffb469"/><path d="M231.21,160.2l.38.22a9.45,9.45,0,0,1,2.82,2.13c1.91,2.39.06,5.13-1.83,6.81-5.12,4.55-12.88,8.27-19.82,6.59a61.52,61.52,0,0,1-17-7.48c-4.34-2.61-9.77-5.76-10.91-11.15a7.79,7.79,0,0,1,2.06-6.71c10.9-12.63,26.23-.77,37,5.41Z" fill="#fcbd4c"/><path d="M296.51,151.14c-13.66,0-24.74,3.62-24.74,8.09h49.48C321.25,154.76,310.17,151.14,296.51,151.14Z" fill="#0a1d23"/><path d="M271.85,159.85l-.08-.63A2.74,2.74,0,0,0,271.85,159.85Z" fill="#06489e"/><path d="M321.25,159.23l-.1.71A2.76,2.76,0,0,0,321.25,159.23Z" fill="#06489e"/><path d="M296.51,167.31c12.93,0,23.54-3.24,24.64-7.38l.1-.71H271.77l.08.63C272.82,164,283.49,167.31,296.51,167.31Z" fill="#0a1d23"/><rect x="300.4" y="117.47" width="5.57" height="57.42" fill="#25b000"/><ellipse cx="303.18" cy="117.47" rx="2.78" ry="1.18" fill="#25b000"/><rect x="307.07" y="127.29" width="5.57" height="57.42" transform="translate(37.47 -58.84) rotate(11.54)" fill="#ff8f02"/><ellipse cx="315.6" cy="127.87" rx="1.18" ry="2.78" transform="translate(127.18 411.51) rotate(-78.46)" fill="#ff8f02"/><path d="M289.78,160.49l-5.08,2.91a.45.45,0,0,1-.45-.78l5.2-3a.46.46,0,0,1,.16-.06l-1-5.5L283.49,157a.45.45,0,0,1-.45-.78l5.2-3a.45.45,0,0,1,.19-.06l-.94-5.09-5,2.87a.45.45,0,0,1-.45-.78l5.2-3,.1,0-1.05-5.67-5,2.86a.45.45,0,0,1-.45-.78l5.2-3,.08,0-1-5.54L280,138a.45.45,0,0,1-.45-.78l5.2-3a.46.46,0,0,1,.16-.06l-.89-4.81-5.09,2.91a.45.45,0,0,1-.45-.78l5.2-3a.46.46,0,0,1,.17-.06l-.89-4.8-5.08,2.9a.45.45,0,0,1-.45-.78l5.2-3a.46.46,0,0,1,.15-.05l-1-5.28-5,2.87a.45.45,0,0,1-.45-.78l5.2-3,.1,0-.46-2.46-11,6.84s7.84,43.65,8,43.74c4.58,2.39,12.91,2.67,12.91,2.67Z" fill="#68e1fd"/><path d="M276.33,119.54a.45.45,0,0,0,.45.78l5-2.87-.17-.92-.1,0Z" fill="#ca4300"/><path d="M277.43,125.76a.45.45,0,0,0,.45.78l5.08-2.9-.17-.91a.46.46,0,0,0-.15.05Z" fill="#ca4300"/><path d="M278.47,131.47a.45.45,0,0,0,.45.78l5.09-2.91-.17-.9a.46.46,0,0,0-.17.06Z" fill="#ca4300"/><path d="M279.54,137.17a.45.45,0,0,0,.45.78l5.08-2.91-.17-.9a.46.46,0,0,0-.16.06Z" fill="#ca4300"/><path d="M280.81,143.6a.45.45,0,0,0,.45.78l5-2.86-.17-.93-.08,0Z" fill="#ca4300"/><path d="M282,150.2a.45.45,0,0,0,.45.78l5-2.87-.17-.92-.1,0Z" fill="#ca4300"/><path d="M288.24,153.26l-5.2,3a.45.45,0,0,0,.45.78l5.11-2.92-.17-.89A.45.45,0,0,0,288.24,153.26Z" fill="#ca4300"/><path d="M284.26,162.62a.45.45,0,0,0,.45.78l5.08-2.91-.17-.9a.46.46,0,0,0-.16.06Z" fill="#ca4300"/><path d="M312.87,127.31s.28,1.46,2.49,1.71,3-.6,3-.6l-.72-11Z" fill="#ffd8bd"/><path d="M317.61,117.47l-2.2,4.57a2,2,0,0,0,2.52.35Z" fill="#653200"/><path d="M300.4,117.14s.51,1.4,2.73,1.3,2.83-1.06,2.83-1.06l-2.44-10.71Z" fill="#ffd8bd"/><path d="M303.52,106.67l-1.45,4.86a2,2,0,0,0,2.55-.05Z" fill="#653200"/><path d="M296.51,167.31c-13,0-23.68-3.29-24.66-7.46.65,5,5.09,39.32,5.26,39.52,0,0,2.27,9.68,19.4,9.67,14.57,0,18.73-7.32,18.73-7.32l5.91-41.79C320,164.07,309.44,167.31,296.51,167.31Z" fill="#173743"/><polygon points="187.31 100.81 54.56 176.8 54.56 185.01 189.83 108.34 190.2 101.94 187.31 100.81" fill="#e27623"/><polyline points="56.87 178.28 54.66 176.77 51.99 178.09 56.98 180.99" fill="#e27623"/><polyline points="51.99 178.09 51.99 183.14 54.56 185.01 55.17 178.09" fill="#e27623"/><path d="M206.69,220.33l-4.14-1.9s-.4-3.59,1-4.35S206.69,220.33,206.69,220.33Z" fill="#196132"/><path d="M196.5,210.33s-.37,8.84-1,9.76-8.35,5.21-9,6.77,8.76-.32,11.83-1.17,5.91-2.45,6-3.61-1.3-7.06-.16-7,2.43,5.2,2.43,5.2l2.68-1.67-6.47-20.54" fill="#196132"/><path d="M187.89,212l-4.14-1.9s-.4-3.59,1-4.35S187.89,212,187.89,212Z" fill="#196132"/><path d="M177.7,202s-.37,8.84-1,9.76-8.35,5.21-9,6.77,8.76-.32,11.83-1.17,5.91-2.45,6-3.61-1.3-7.06-.16-7,2.43,5.2,2.43,5.2l2.68-1.67-6.47-20.54" fill="#196132"/><path d="M206.66,135c1.47,1.35,5.26,20.5,3.23,29.79s-24.38,13.64-24.38,13.64l5.79,23.41s-8.45,6.69-16.71,4.21c-3-.9-10.49-34.52-8-39.29s32.17-21.72,32.17-21.72" fill="#fff0d7"/><path d="M224.51,141.64c1.47,1.35,5.84,12.07.57,25.47-3.48,8.84-23.36,15.47-23.36,15.47l7.43,25.9s-8.79,7.62-16.71,4.21-10.83-35.38-8.33-40.15,28.17-21.92,28.17-21.92" fill="#fff0d7"/><path d="M216.8,115.95s15,5.83,11.3,26.93c-2.59,14.87-17.22,16.83-17.22,16.83s-9.75-5.83-8.71-7.89l12.9-7.09-15-7.15L189.69,149l-7.76-5.77s10.63-17.54,15.26-24.79S216.8,115.95,216.8,115.95Z" fill="#ff9a22"/><line x1="174.83" y1="141.48" x2="176.14" y2="140.14" fill="#fff7f0"/><path d="M198.43,152.12,201,150s-5.94-5.2-13.87-4.32a16.7,16.7,0,0,0-9.06-6.6l-3.23,2.44" fill="#ffe8bc"/><polyline points="200.99 149.96 203.39 165.03 198.78 167.7 194.8 153.97" fill="#ffe8bc"/><path d="M198.43,152.12l2.47,14.27-2.12,1.31S176.28,156,176.49,155.76s-1.66-14.28-1.66-14.28" fill="#68e1fd"/><polygon points="176.41 140.28 198.43 152.12 196.41 153.32 174.83 141.48 176.41 140.28" fill="#68e1fd"/><polygon points="176.41 140.28 198.43 152.12 196.41 153.32 174.83 141.48 176.41 140.28" fill="#1371a5" opacity="0.42"/><path d="M195.68,154.17a1.19,1.19,0,0,1,1.42-1.48,14.49,14.49,0,0,0,5.31.77,1.1,1.1,0,0,1,.56.12l.05,0a32.21,32.21,0,0,0,5.71,4.37l-.6.3a35.42,35.42,0,0,1-2.67,4.6,2.57,2.57,0,0,1-2.06,1.09,6.5,6.5,0,0,1-.84.57,2.44,2.44,0,0,1-2.73-.18,1.3,1.3,0,0,1-.94.19,1.24,1.24,0,0,1-1.34-.1,2.39,2.39,0,0,1-1-3.18,2.48,2.48,0,0,1-.16-3.15,7.52,7.52,0,0,1,1.76-1.86A3.07,3.07,0,0,1,195.68,154.17Z" fill="#fdba45"/><path d="M174.19,149.63c-.13-.2-.26-.39-.39-.6a1.12,1.12,0,0,1,.5-1.64l.16-.16a1.19,1.19,0,0,1,.45-1.51,1.21,1.21,0,0,1,1.11-.05,1,1,0,0,1,.3.12,4.52,4.52,0,0,1,1.87,2.2,1.18,1.18,0,0,1-.51,1.34,1.25,1.25,0,0,1-.41.14h0a7.26,7.26,0,0,1,1,1.76c.33.82-.51,1.56-1.27,1.51l.18.24c.67.83-.38,2-1.29,1.76a2.45,2.45,0,0,1-1.49-1.28c-.4-.68-.78-1.38-1.15-2.07A1.24,1.24,0,0,1,174.19,149.63Z" fill="#fdba45"/><path d="M199.53,132.26s-.06,13.35.76,14.79,15.06,7.12,15.06,7.12L223.83,143Z" fill="#ff9a22"/><path d="M206.19,109.26s-2.36,5.47-1.36,7.39,6.2.47,6.2.47" fill="#1b6333"/><path d="M205.68,106.5s.09,11,4.64,12.09,6.81-4.55,6.81-4.55.75-7.44-.75-9S208,103.33,205.68,106.5Z" fill="#fdba45"/><path d="M203.91,105.32s3.14,4.24,5,5.29,3.84.38,4.5,1.86-1.39,10.36.71,12,6-3.27,7.86-1,1,6.63,3.78,7.51,6-3.5,3.26-6.88-3-5.06-1.53-6.23c2.24-1.74-.25-7.91-2.94-9s-3.54-7.13-8.35-8.51S204.86,101.89,203.91,105.32Z" fill="#1b6333"/><path d="M200.49,128q.19,9.24.78,18.46c0,.7-1,.72-1.09,0q-.58-9.22-.78-18.46A.54.54,0,0,1,200.49,128Z" fill="#f26250"/><path d="M202.37,151.44A24.79,24.79,0,0,0,216,133.86c.14-.69,1.19-.42,1.06.27a25.8,25.8,0,0,1-14.07,18.24C202.31,152.68,201.74,151.75,202.37,151.44Z" fill="#f26250"/><path d="M91,177.59c.07,19.82.17,37.65.17,37.65s.42,1.61,3.4.29V176.43C93.39,176.83,92.19,177.21,91,177.59Z" fill="#5b434d"/><path d="M173.86,225.78c.07,19.82.17,37.65.17,37.65s.42,1.61,3.4.29V224.63C176.25,225,175.05,225.41,173.86,225.78Z" fill="#5b434d"/><path d="M224.9,195.76c.07,19.82.17,37.65.17,37.65s.42,1.61,3.4.29V194.6C227.29,195,226.1,195.38,224.9,195.76Z" fill="#5b434d"/><polyline points="90.3 176.43 90.3 179.8 175.81 229.28 228.4 194.74 228.48 190.97" fill="#68e1fd"/><polyline points="90.3 176.43 90.3 179.8 175.81 229.28 228.4 194.74 228.48 190.97" fill="#06489e" opacity="0.36"/><polygon points="90.3 176.43 145.32 145.04 228.48 190.97 175.51 225.89 90.3 176.43" fill="#68e1fd"/><path d="M166,177.49c.08,0,.85-.31.21-.8a13.26,13.26,0,0,0-1.34-.92" fill="#e27825"/><path d="M166,173.42s-.64,2.39,0,3.66l-8.77,5.15-8.67,5v-3.71" fill="#ffe8bc"/><path d="M166.26,173.05q0,.25-.06.5l-17.66,10v3.71L166.18,177c0,.15,0,.29,0,.44L147.85,188V183Z" fill="#e27825"/><path d="M166.16,173.12l-18.22,10.43-25.56-15,17.82-10.22a1.76,1.76,0,0,1,1.77,0l24.18,14.33A.26.26,0,0,1,166.16,173.12Z" fill="#fdba45"/><path d="M147.85,188s-25.54-15-25.47-15.12,0-4.35,0-4.35l25.56,15Z" fill="#e27825"/><path d="M166.16,172.66a.65.65,0,0,1,.27.46c0,.31-.3.46-.42.53" fill="#fdba45"/><path d="M178.61,173c.08,0,.85-.31.21-.8a13.26,13.26,0,0,0-1.34-.92" fill="#9a433a"/><path d="M178.61,169s-.64,2.39,0,3.66l-8.77,5.15-8.67,5V179.1" fill="#ffe8bc"/><path d="M178.9,168.61q0,.25-.06.5l-17.66,10v3.71l17.65-10.29c0,.15,0,.29,0,.44L160.5,183.56v-5.05Z" fill="#9a433a"/><path d="M178.8,168.67,160.59,179.1l-25.56-15,17.82-10.22a1.76,1.76,0,0,1,1.77,0l24.18,14.33A.26.26,0,0,1,178.8,168.67Z" fill="#f26250"/><path d="M160.5,183.56S135,168.52,135,168.45s0-4.35,0-4.35l25.56,15Z" fill="#9a433a"/><path d="M178.81,168.21a.65.65,0,0,1,.27.46c0,.31-.3.46-.42.53" fill="#f26250"/></svg>